<svg width="53" height="53" viewBox="0 0 53 53" fill="none" xmlns="http://www.w3.org/2000/svg">
<mask id="mask0_6254_25297" style="mask-type:alpha" maskUnits="userSpaceOnUse" x="0" y="0" width="53" height="53">
<rect width="53" height="53" fill="#D9D9D9"/>
</mask>
<g mask="url(#mask0_6254_25297)">
<path d="M26.7049 21.9491V20.0168H30.9008V17.9188H26.7049V11.9563H32.8331V13.9438H28.6372V15.9866H32.8331V21.9491H26.7049ZM34.8206 21.9491V11.9563H36.8081V21.9491H34.8206ZM38.7956 21.9491V11.9563H44.9789V17.9188H40.7279V21.9491H38.7956ZM40.7279 15.9866H43.0466V13.9438H40.7279V15.9866ZM42.9914 48.8907C38.722 48.8907 34.4805 47.869 30.267 45.8256C26.052 43.7836 22.2883 41.1063 18.9758 37.7938C15.6633 34.4813 12.986 30.7272 10.9441 26.5313C8.90063 22.3355 7.87891 18.0845 7.87891 13.7782C7.87891 13.1157 8.09974 12.5636 8.54141 12.122C8.98307 11.6803 9.53516 11.4595 10.1977 11.4595H17.3747C17.9636 11.4595 18.4693 11.6339 18.8919 11.9828C19.3159 12.3332 19.5831 12.7845 19.6935 13.3366L20.9633 19.8511C21.0369 20.4032 21.0185 20.9001 20.9081 21.3418C20.7977 21.7834 20.5584 22.1699 20.1904 22.5011L15.1664 27.4699C16.8963 30.4143 18.9662 33.0827 21.3762 35.4751C23.7877 37.8675 26.5209 39.947 29.5758 41.7136L34.4893 36.7449C34.8574 36.3768 35.2902 36.1192 35.7878 35.972C36.284 35.8248 36.7897 35.7879 37.3049 35.8616L43.4331 37.1313C43.9852 37.2418 44.4364 37.4994 44.7868 37.9043C45.1357 38.3091 45.3102 38.806 45.3102 39.3949V46.572C45.3102 47.2345 45.0893 47.7866 44.6477 48.2282C44.206 48.6699 43.6539 48.8907 42.9914 48.8907Z" fill="white"/>
</g>
</svg>
