<svg width="37" height="15" viewBox="0 0 37 15" fill="none" xmlns="http://www.w3.org/2000/svg">
<path d="M18.6568 5.30227C22.55 5.22865 25.0113 6.68899 25.9243 7.35239C26.177 7.53553 26.3336 7.82301 26.3478 8.13017L26.5043 11.2767C26.5272 11.7395 26.8671 12.1351 27.3237 12.2305L33.7956 13.4944C34.3011 13.6003 34.7926 13.3075 34.9304 12.8183L36.7651 6.86156C36.8787 6.46802 36.7327 6.03788 36.399 5.78315C34.0943 4.03366 28.0914 0.0944817 18.4072 0.277251C8.72308 0.460021 3.12553 4.61821 0.998743 6.45255C0.69114 6.7194 0.588333 7.15425 0.740998 7.54276L3.1666 13.4189C3.35281 13.9007 3.8707 14.1741 4.36384 14.051L10.6967 12.5442C11.143 12.432 11.443 12.0247 11.4202 11.5619L11.2624 8.41543C11.246 8.1083 11.3735 7.81546 11.6075 7.62312C12.4526 6.92647 14.7636 5.37589 18.6568 5.30227Z" fill="white"/>
</svg>
