<svg width="38" height="38" viewBox="0 0 38 38" fill="none" xmlns="http://www.w3.org/2000/svg">
<path d="M30.501 22.9125L28.2979 20.7094C28.6243 20.1545 28.8776 19.5344 29.0577 18.849C29.2366 18.1635 29.326 17.4455 29.326 16.6948H32.2635C32.2635 17.9024 32.1088 19.02 31.7994 20.0475C31.4887 21.0762 31.0559 22.0312 30.501 22.9125ZM24.1854 16.5479L14.6385 6.95208V4.94479C14.6385 3.57396 15.1118 2.41528 16.0583 1.46875C17.0049 0.522222 18.1635 0.0489585 19.5344 0.0489585C20.9052 0.0489585 22.0639 0.522222 23.0104 1.46875C23.9569 2.41528 24.4302 3.57396 24.4302 4.94479V15.4219C24.4302 15.6503 24.4061 15.854 24.3577 16.0329C24.3081 16.213 24.2507 16.3847 24.1854 16.5479ZM18.0656 35.7885V29.326C14.8344 28.967 12.1502 27.5883 10.013 25.19C7.87446 22.7904 6.80521 19.9587 6.80521 16.6948H9.74271C9.74271 19.4038 10.6977 21.7127 12.6077 23.6214C14.5165 25.5314 16.8253 26.4865 19.5344 26.4865C20.7747 26.4865 21.9497 26.258 23.0594 25.801C24.1691 25.3441 25.1483 24.724 25.9969 23.9406L28.1021 26.0458C27.1556 26.9271 26.0785 27.653 24.8708 28.2235C23.6632 28.7953 22.374 29.1628 21.0031 29.326V35.7885H18.0656ZM35.6417 37.6979L0 2.05625L2.05625 0L37.6979 35.5927L35.6417 37.6979Z" fill="#9C9C9C"/>
</svg>
