<svg width="26" height="26" viewBox="0 0 26 26" fill="none" xmlns="http://www.w3.org/2000/svg">
<g clip-path="url(#clip0_6310_830)">
<path d="M24.2289 17.2907C22.9082 16.2294 21.6967 15.7134 20.5251 15.7134C18.8303 15.7134 17.61 16.7915 16.5052 17.8959C16.3782 18.0231 16.2243 18.0824 16.0212 18.0824C15.0902 18.0825 13.4524 16.9166 11.1533 14.6172C8.44849 11.9122 7.42585 10.1918 8.1135 9.50386C9.97762 7.64037 10.5596 5.77227 7.70547 2.22274C6.68373 0.951064 5.68407 0.333008 4.64939 0.333008C3.25402 0.333008 2.19327 1.44841 1.25741 2.43259C1.09561 2.60271 0.942774 2.76343 0.79292 2.91328C-0.264834 3.97094 -0.264291 6.27793 0.794458 9.0848C1.9561 12.1645 4.24969 15.5147 7.25283 18.5183C9.57529 20.8405 12.1023 22.7173 14.5607 23.9774C16.7071 25.0776 18.789 25.6671 20.423 25.6671C20.4232 25.6671 20.4234 25.6671 20.4237 25.6671C21.4462 25.6671 22.2769 25.444 22.8254 24.9904C23.9397 24.0691 26.0138 22.3626 25.9999 20.3356C25.9923 19.2484 25.3966 18.2296 24.2289 17.2907Z" fill="#3B9EF7"/>
</g>
<defs>
<clipPath id="clip0_6310_830">
<rect width="26" height="26" fill="white"/>
</clipPath>
</defs>
</svg>
