<svg width="176" height="100" viewBox="0 0 176 100" fill="none" xmlns="http://www.w3.org/2000/svg">
<g clip-path="url(#clip0_6254_26385)">
<path d="M20.6958 44.7981C20.6958 42.3393 19.0082 41.0738 16.2592 41.0738H10.6484V48.5598H16.3694C19.1211 48.5598 20.6958 47.0696 20.6958 44.873V44.7981ZM20.5883 61.9668L15.0876 53.6246H10.6484V61.9668H5V35.8967H16.7349C19.9998 35.8967 22.5311 36.8278 24.216 38.5428C25.6482 39.9956 26.4168 42.0423 26.4168 44.5011V44.576C26.4168 48.7846 24.1783 51.428 20.9161 52.656L27.188 61.9668H20.5883ZM30.9097 42.0049H36.4829V61.9668H30.9097V42.0049ZM54.1618 50.8313C54.1618 48.1505 52.915 46.7726 50.7867 46.7726C48.6585 46.7726 47.3015 48.1478 47.3015 50.8313V61.9668H41.7283V42.0049H47.3015V44.8355C48.5859 43.1607 50.2358 41.633 53.0601 41.633C57.2789 41.633 59.735 44.4636 59.735 49.0441V61.9668H54.1591V50.8313H54.1618ZM78.2899 50.9437C78.2899 48.2254 76.1993 46.3258 73.4853 46.3258C70.7712 46.3258 68.7155 48.2254 68.7155 50.9437V51.0186C68.7155 53.7744 70.7685 55.6365 73.4853 55.6365C76.1993 55.6365 78.2899 53.7369 78.2899 51.0186V50.9437ZM72.8242 68C69.6318 68 66.6249 67.2562 64.1312 65.9131L66.0391 61.6698C68.0572 62.8229 70.0725 63.4945 72.6791 63.4945C76.4949 63.4945 78.2899 61.6323 78.2899 58.0552V57.0866C76.64 59.0986 74.845 60.3267 71.8729 60.3267C67.2886 60.3267 63.145 56.9368 63.145 51.0159V50.941C63.145 44.9827 67.3612 41.6303 71.8729 41.6303C74.9175 41.6303 76.7152 42.9333 78.2174 44.6108V42.0049H83.7932V57.4612C83.7932 61.0357 82.9495 63.6443 81.2995 65.3192C79.4615 67.1813 76.64 68 72.8242 68ZM103.686 45.0228C103.686 42.4543 101.926 41.0738 99.1021 41.0738H94.7381V49.0441H99.2122C102.036 49.0441 103.686 47.3318 103.686 45.0951V45.0228ZM99.0268 54.1463H94.7354V61.9668H89.087V35.8967H99.5777C105.702 35.8967 109.407 39.5835 109.407 44.9104V44.9854C109.407 51.0186 104.785 54.1463 99.0268 54.1463ZM112.705 34.781H118.278V61.9668H112.705V34.781ZM134.592 53.9215C133.638 53.4747 132.393 53.1777 131.034 53.1777C128.65 53.1777 127.183 54.1463 127.183 55.9335V56.0084C127.183 57.5335 128.43 58.4297 130.225 58.4297C132.831 58.4297 134.589 56.977 134.589 54.9302V53.9215H134.592ZM134.484 59.8076C133.127 61.3353 131.254 62.3387 128.54 62.3387C124.837 62.3387 121.793 60.1795 121.793 56.2305V56.1583C121.793 51.7999 125.057 49.7906 129.714 49.7906C131.695 49.7906 133.127 50.125 134.519 50.6093V50.2748C134.519 47.9284 133.087 46.6254 130.303 46.6254C128.175 46.6254 126.67 47.0348 124.875 47.7037L123.48 43.3854C125.643 42.4169 127.771 41.7855 131.109 41.7855C134.154 41.7855 136.354 42.6042 137.746 44.0195C139.213 45.5098 139.872 47.7037 139.872 50.3872V61.9694H134.481V59.8076H134.484ZM157.113 61.9668V50.8313C157.113 48.1505 155.866 46.7726 153.74 46.7726C151.612 46.7726 150.255 48.1478 150.255 50.8313V61.9668H144.679V42.0049H150.252V44.8355C151.537 43.1607 153.187 41.633 156.011 41.633C160.227 41.633 162.686 44.4636 162.686 49.0441V61.9668H157.113Z" fill="white"/>
<path d="M33.4816 32.4907C35.3868 32.4907 36.9319 34.0291 36.9319 35.9261C36.9319 37.823 35.3868 39.3614 33.4816 39.3614C31.5764 39.3614 30.0312 37.823 30.0312 35.9261C30.0313 34.0291 31.5764 32.4907 33.4816 32.4907Z" fill="white"/>
<path d="M55.3414 24.4722C57.8835 24.4722 59.9418 26.5243 59.9418 29.0526C59.9418 31.5836 57.8808 33.6358 55.3414 33.6358C52.7993 33.6358 50.7383 31.5836 50.7383 29.0526C50.7383 26.5243 52.7993 24.4722 55.3414 24.4722Z" fill="#83D929"/>
<path d="M80.077 15.3086C84.2072 15.3086 87.5554 18.6423 87.5554 22.7518C87.5554 26.8641 84.2072 30.1978 80.077 30.1978C75.9469 30.1978 72.5986 26.8641 72.5986 22.7518C72.5986 18.6423 75.9469 15.3086 80.077 15.3086Z" fill="#83D929"/>
<path d="M113.717 5C119.753 5 124.369 9.87209 124.369 15.8813C124.369 21.8904 119.476 26.7625 113.44 26.7625C107.405 26.7625 102.512 21.8904 102.512 15.8813C102.512 9.87209 107.682 5 113.717 5Z" fill="#83D929"/>
<path d="M144.502 15.3086C148.632 15.3086 151.98 18.6423 151.98 22.7518C151.98 26.8641 148.632 30.1978 144.502 30.1978C140.372 30.1978 137.023 26.8641 137.023 22.7518C137.023 18.6423 140.369 15.3086 144.502 15.3086Z" fill="#83D929"/>
<path d="M166.582 59.4464V61.9694H166.185V59.4464H165.19V59.0986H167.574V59.4464H166.582ZM170.621 61.9694V59.813L169.713 61.536H169.487L168.571 59.813V61.9694H168.192V59.0986H168.56L169.592 61.0384L170.624 59.0986H171.003V61.9694H170.621Z" fill="white"/>
</g>
<g clip-path="url(#clip1_6254_26385)">
<path d="M137.603 71.1474H134.136V68.8137H143.751V71.15H140.281V80.7986H137.603V71.1474Z" fill="white"/>
<path d="M149.915 79.3754C149.092 80.4084 147.733 81.0001 146.396 81.0001C143.821 81.0001 141.759 79.3066 141.759 76.6846C141.759 74.0601 143.818 72.3691 146.396 72.3691C148.799 72.3691 150.311 74.0627 150.311 76.6846V77.4804H144.336C144.543 78.4445 145.28 79.0719 146.277 79.0719C147.118 79.0719 147.684 78.6485 148.114 78.0747L149.915 79.3754ZM147.736 75.7511C147.752 74.9044 147.084 74.1928 146.155 74.1928C145.022 74.1928 144.403 74.9554 144.336 75.7511H147.736Z" fill="white"/>
<path d="M151.048 68H153.622V80.796H151.048V68Z" fill="white"/>
<path d="M160.27 75.2281C160.011 74.8711 159.53 74.6007 158.997 74.6007C157.711 74.6007 156.937 75.4475 156.937 76.6845C156.937 77.9189 157.711 78.7657 158.997 78.7657C159.563 78.7657 159.975 78.4775 160.27 78.1383L161.97 79.8981C161.162 80.7118 159.977 80.9974 158.999 80.9974C156.425 80.9974 154.362 79.3039 154.362 76.6819C154.362 74.0574 156.425 72.3665 158.999 72.3665C159.977 72.3665 161.162 72.6547 161.97 73.4657L160.27 75.2281Z" fill="white"/>
<path d="M166.363 72.3665C168.938 72.3665 171 74.06 171 76.6819C171 79.3064 168.941 80.9974 166.363 80.9974C163.789 80.9974 161.727 79.3039 161.727 76.6819C161.729 74.06 163.789 72.3665 166.363 72.3665ZM166.363 78.7657C167.652 78.7657 168.426 77.9189 168.426 76.6845C168.426 75.4475 167.652 74.6007 166.363 74.6007C165.075 74.6007 164.304 75.4475 164.304 76.6845C164.304 77.9189 165.077 78.7657 166.363 78.7657Z" fill="white"/>
<path d="M133.411 68.8137V71.1474L127.366 78.3603H133.615V80.7961H124V78.3603L130.164 71.1474H124.223V68.8137H133.411Z" fill="white"/>
</g>
<path d="M111.382 67.5H112.534L111.416 73.9404L111.128 75H110.078L111.382 67.5ZM115.034 72.2803L115.024 72.3828C114.982 72.7083 114.906 73.0339 114.795 73.3594C114.688 73.6816 114.538 73.9762 114.346 74.2432C114.157 74.5101 113.923 74.7233 113.643 74.8828C113.366 75.0391 113.039 75.1123 112.661 75.1025C112.326 75.096 112.046 75.013 111.821 74.8535C111.6 74.694 111.426 74.4873 111.299 74.2334C111.172 73.9795 111.086 73.7044 111.04 73.4082C110.994 73.1087 110.978 72.8158 110.991 72.5293L111.03 72.1973C111.086 71.8945 111.174 71.5902 111.294 71.2842C111.418 70.9749 111.577 70.6934 111.772 70.4395C111.968 70.1823 112.201 69.9788 112.471 69.8291C112.744 69.6761 113.055 69.6045 113.403 69.6143C113.768 69.624 114.064 69.7119 114.292 69.8779C114.52 70.0407 114.692 70.2523 114.81 70.5127C114.93 70.7731 115.005 71.0579 115.034 71.3672C115.067 71.6764 115.067 71.9808 115.034 72.2803ZM113.872 72.3779L113.887 72.2705C113.906 72.1045 113.914 71.9238 113.911 71.7285C113.911 71.5332 113.887 71.3477 113.838 71.1719C113.789 70.9961 113.703 70.8529 113.579 70.7422C113.459 70.6283 113.285 70.568 113.057 70.5615C112.855 70.5518 112.673 70.5843 112.51 70.6592C112.347 70.7308 112.204 70.8317 112.08 70.9619C111.956 71.0889 111.854 71.2354 111.772 71.4014C111.691 71.5674 111.629 71.7399 111.587 71.9189L111.45 72.8125C111.44 73.0306 111.468 73.2406 111.533 73.4424C111.598 73.6442 111.706 73.8118 111.855 73.9453C112.005 74.0755 112.202 74.1439 112.446 74.1504C112.69 74.1602 112.897 74.1113 113.066 74.0039C113.239 73.8965 113.379 73.7549 113.486 73.5791C113.597 73.4033 113.683 73.2096 113.745 72.998C113.807 72.7865 113.849 72.5798 113.872 72.3779ZM117.075 74.3652L119.253 69.7168H120.522L117.427 75.8105C117.339 75.9928 117.238 76.1654 117.124 76.3281C117.013 76.4909 116.886 76.6341 116.743 76.7578C116.6 76.8815 116.439 76.9775 116.26 77.0459C116.084 77.1175 115.885 77.1533 115.664 77.1533C115.563 77.1501 115.464 77.1387 115.366 77.1191C115.265 77.1029 115.166 77.0833 115.068 77.0605L115.151 76.1572C115.187 76.1605 115.223 76.1637 115.259 76.167C115.295 76.1735 115.33 76.1768 115.366 76.1768C115.552 76.1833 115.715 76.1589 115.854 76.1035C115.994 76.0514 116.117 75.9701 116.221 75.8594C116.328 75.7487 116.423 75.6136 116.504 75.4541L117.075 74.3652ZM117.085 69.7168L117.622 73.7305L117.612 74.9316L116.812 75.1367L115.884 69.7168H117.085Z" fill="white"/>
<defs>
<clipPath id="clip0_6254_26385">
<rect width="166" height="63" fill="white" transform="translate(5 5)"/>
</clipPath>
<clipPath id="clip1_6254_26385">
<rect width="47" height="13" fill="white" transform="translate(124 68)"/>
</clipPath>
</defs>
</svg>
