<svg width="176" height="100" viewBox="0 0 176 100" fill="none" xmlns="http://www.w3.org/2000/svg">
<g clip-path="url(#clip0_6254_25229)">
<path d="M20.6958 44.7981C20.6958 42.3393 19.0082 41.0738 16.2592 41.0738H10.6484V48.5598H16.3694C19.1211 48.5598 20.6958 47.0696 20.6958 44.873V44.7981ZM20.5883 61.9668L15.0876 53.6246H10.6484V61.9668H5V35.8967H16.7349C19.9998 35.8967 22.5311 36.8278 24.216 38.5428C25.6482 39.9956 26.4168 42.0423 26.4168 44.5011V44.576C26.4168 48.7846 24.1783 51.428 20.9161 52.656L27.188 61.9668H20.5883ZM30.9097 42.0049H36.4829V61.9668H30.9097V42.0049ZM54.1618 50.8313C54.1618 48.1505 52.915 46.7726 50.7867 46.7726C48.6585 46.7726 47.3015 48.1478 47.3015 50.8313V61.9668H41.7283V42.0049H47.3015V44.8355C48.5859 43.1607 50.2358 41.633 53.0601 41.633C57.2789 41.633 59.735 44.4636 59.735 49.0441V61.9668H54.1591V50.8313H54.1618ZM78.2899 50.9437C78.2899 48.2254 76.1993 46.3258 73.4853 46.3258C70.7712 46.3258 68.7155 48.2254 68.7155 50.9437V51.0186C68.7155 53.7744 70.7685 55.6365 73.4853 55.6365C76.1993 55.6365 78.2899 53.7369 78.2899 51.0186V50.9437ZM72.8242 68C69.6318 68 66.6249 67.2562 64.1312 65.9131L66.0391 61.6698C68.0572 62.8229 70.0725 63.4945 72.6791 63.4945C76.4949 63.4945 78.2899 61.6323 78.2899 58.0552V57.0866C76.64 59.0986 74.845 60.3267 71.8729 60.3267C67.2886 60.3267 63.145 56.9368 63.145 51.0159V50.941C63.145 44.9827 67.3612 41.6303 71.8729 41.6303C74.9175 41.6303 76.7152 42.9333 78.2174 44.6108V42.0049H83.7932V57.4612C83.7932 61.0357 82.9495 63.6443 81.2995 65.3192C79.4615 67.1813 76.64 68 72.8242 68ZM103.686 45.0228C103.686 42.4543 101.926 41.0738 99.1021 41.0738H94.7381V49.0441H99.2122C102.036 49.0441 103.686 47.3318 103.686 45.0951V45.0228ZM99.0268 54.1463H94.7354V61.9668H89.087V35.8967H99.5777C105.702 35.8967 109.407 39.5835 109.407 44.9104V44.9854C109.407 51.0186 104.785 54.1463 99.0268 54.1463ZM112.705 34.781H118.278V61.9668H112.705V34.781ZM134.592 53.9215C133.638 53.4747 132.393 53.1777 131.034 53.1777C128.65 53.1777 127.183 54.1463 127.183 55.9335V56.0084C127.183 57.5335 128.43 58.4297 130.225 58.4297C132.831 58.4297 134.589 56.977 134.589 54.9302V53.9215H134.592ZM134.484 59.8076C133.127 61.3353 131.254 62.3387 128.54 62.3387C124.837 62.3387 121.793 60.1795 121.793 56.2305V56.1583C121.793 51.7999 125.057 49.7906 129.714 49.7906C131.695 49.7906 133.127 50.125 134.519 50.6093V50.2748C134.519 47.9284 133.087 46.6254 130.303 46.6254C128.175 46.6254 126.67 47.0348 124.875 47.7037L123.48 43.3854C125.643 42.4169 127.771 41.7855 131.109 41.7855C134.154 41.7855 136.354 42.6042 137.746 44.0195C139.213 45.5098 139.872 47.7037 139.872 50.3872V61.9694H134.481V59.8076H134.484ZM157.113 61.9668V50.8313C157.113 48.1505 155.866 46.7726 153.74 46.7726C151.612 46.7726 150.255 48.1478 150.255 50.8313V61.9668H144.679V42.0049H150.252V44.8355C151.537 43.1607 153.187 41.633 156.011 41.633C160.227 41.633 162.686 44.4636 162.686 49.0441V61.9668H157.113Z" fill="#00A2DD"/>
<path d="M33.4816 32.4907C35.3868 32.4907 36.9319 34.0291 36.9319 35.9261C36.9319 37.823 35.3868 39.3614 33.4816 39.3614C31.5764 39.3614 30.0312 37.823 30.0312 35.9261C30.0313 34.0291 31.5764 32.4907 33.4816 32.4907Z" fill="#00A2DD"/>
<path d="M55.3414 24.4722C57.8835 24.4722 59.9418 26.5243 59.9418 29.0526C59.9418 31.5836 57.8808 33.6358 55.3414 33.6358C52.7993 33.6358 50.7383 31.5836 50.7383 29.0526C50.7383 26.5243 52.7993 24.4722 55.3414 24.4722Z" fill="#6FC316"/>
<path d="M80.0761 15.3086C84.2062 15.3086 87.5545 18.6423 87.5545 22.7518C87.5545 26.8641 84.2062 30.1978 80.0761 30.1978C75.9459 30.1978 72.5977 26.8641 72.5977 22.7518C72.5977 18.6423 75.9459 15.3086 80.0761 15.3086Z" fill="#6FC316"/>
<path d="M113.717 5C119.753 5 124.369 9.87209 124.369 15.8813C124.369 21.8904 119.476 26.7625 113.44 26.7625C107.405 26.7625 102.512 21.8904 102.512 15.8813C102.512 9.87209 107.682 5 113.717 5Z" fill="#6FC316"/>
<path d="M144.502 15.3086C148.632 15.3086 151.98 18.6423 151.98 22.7518C151.98 26.8641 148.632 30.1978 144.502 30.1978C140.372 30.1978 137.023 26.8641 137.023 22.7518C137.023 18.6423 140.369 15.3086 144.502 15.3086Z" fill="#6FC316"/>
<path d="M166.581 59.4464V61.9694H166.184V59.4464H165.189V59.0986H167.573V59.4464H166.581ZM170.62 61.9694V59.813L169.712 61.536H169.486L168.57 59.813V61.9694H168.191V59.0986H168.559L169.591 61.0384L170.623 59.0986H171.002V61.9694H170.62Z" fill="#00A2DD"/>
</g>
<g clip-path="url(#clip1_6254_25229)">
<path d="M137.602 71.1474H134.135V68.8137H143.75V71.15H140.28V80.7986H137.602V71.1474Z" fill="#00A2DD"/>
<path d="M149.914 79.3754C149.091 80.4084 147.732 81.0001 146.395 81.0001C143.82 81.0001 141.758 79.3066 141.758 76.6846C141.758 74.0601 143.817 72.3691 146.395 72.3691C148.798 72.3691 150.31 74.0627 150.31 76.6846V77.4804H144.335C144.542 78.4445 145.279 79.0719 146.276 79.0719C147.117 79.0719 147.683 78.6485 148.113 78.0747L149.914 79.3754ZM147.735 75.7511C147.751 74.9044 147.083 74.1928 146.154 74.1928C145.021 74.1928 144.402 74.9554 144.335 75.7511H147.735Z" fill="#00A2DD"/>
<path d="M151.047 68H153.621V80.796H151.047V68Z" fill="#00A2DD"/>
<path d="M160.269 75.2281C160.01 74.8711 159.529 74.6007 158.996 74.6007C157.71 74.6007 156.936 75.4475 156.936 76.6845C156.936 77.9189 157.71 78.7657 158.996 78.7657C159.562 78.7657 159.974 78.4775 160.269 78.1383L161.969 79.8981C161.161 80.7118 159.976 80.9974 158.998 80.9974C156.424 80.9974 154.361 79.3039 154.361 76.6819C154.361 74.0574 156.424 72.3665 158.998 72.3665C159.976 72.3665 161.161 72.6547 161.969 73.4657L160.269 75.2281Z" fill="#00A2DD"/>
<path d="M166.363 72.3665C168.938 72.3665 171 74.06 171 76.6819C171 79.3064 168.941 80.9974 166.363 80.9974C163.789 80.9974 161.727 79.3039 161.727 76.6819C161.729 74.06 163.789 72.3665 166.363 72.3665ZM166.363 78.7657C167.652 78.7657 168.426 77.9189 168.426 76.6845C168.426 75.4475 167.652 74.6007 166.363 74.6007C165.075 74.6007 164.304 75.4475 164.304 76.6845C164.304 77.9189 165.077 78.7657 166.363 78.7657Z" fill="#00A2DD"/>
<path d="M133.411 68.8137V71.1474L127.366 78.3603H133.615V80.7961H124V78.3603L130.164 71.1474H124.223V68.8137H133.411Z" fill="#00A2DD"/>
</g>
<path d="M111.318 67.5H112.695L111.587 73.8672L111.26 75H110.015L111.318 67.5ZM115.098 72.2754L115.088 72.3828C115.046 72.7083 114.971 73.0339 114.863 73.3594C114.759 73.6849 114.613 73.9811 114.424 74.248C114.238 74.5117 114.006 74.7233 113.726 74.8828C113.449 75.0391 113.12 75.1123 112.739 75.1025C112.404 75.0928 112.127 75.0049 111.909 74.8389C111.691 74.6696 111.522 74.4548 111.401 74.1943C111.281 73.9307 111.2 73.6491 111.157 73.3496C111.115 73.0469 111.099 72.7572 111.108 72.4805L111.133 72.251C111.185 71.958 111.271 71.6553 111.392 71.3428C111.512 71.0303 111.667 70.7422 111.855 70.4785C112.048 70.2148 112.275 70.0033 112.539 69.8438C112.806 69.681 113.112 69.6045 113.457 69.6143C113.822 69.6208 114.118 69.7054 114.346 69.8682C114.577 70.0309 114.753 70.2441 114.873 70.5078C114.993 70.7682 115.068 71.0531 115.098 71.3623C115.13 71.6715 115.13 71.9759 115.098 72.2754ZM113.716 72.3779L113.721 72.2705C113.737 72.124 113.747 71.9629 113.75 71.7871C113.757 71.6113 113.742 71.4437 113.706 71.2842C113.67 71.1247 113.6 70.9928 113.496 70.8887C113.392 70.7812 113.239 70.7243 113.037 70.7178C112.839 70.708 112.664 70.7389 112.515 70.8105C112.368 70.8822 112.243 70.9814 112.139 71.1084C112.035 71.2354 111.95 71.3802 111.885 71.543C111.82 71.7025 111.772 71.8685 111.743 72.041L111.65 72.6855C111.637 72.8906 111.649 73.0924 111.685 73.291C111.72 73.4896 111.8 73.6556 111.924 73.7891C112.051 73.9193 112.236 73.9876 112.48 73.9941C112.705 74.0039 112.892 73.96 113.042 73.8623C113.192 73.7614 113.312 73.6296 113.403 73.4668C113.494 73.304 113.563 73.1266 113.608 72.9346C113.657 72.7393 113.693 72.5537 113.716 72.3779ZM117.056 74.3311L119.194 69.7168H120.708L117.612 75.8008C117.521 75.9928 117.417 76.1702 117.3 76.333C117.186 76.499 117.056 76.6423 116.909 76.7627C116.766 76.8864 116.602 76.9808 116.416 77.0459C116.234 77.1143 116.029 77.1484 115.801 77.1484C115.687 77.1484 115.576 77.1387 115.469 77.1191C115.361 77.0996 115.254 77.0768 115.146 77.0508L115.244 76.0107C115.28 76.014 115.316 76.0173 115.352 76.0205C115.384 76.0238 115.417 76.0254 115.449 76.0254C115.612 76.0286 115.755 76.0091 115.879 75.9668C116.006 75.9277 116.117 75.8626 116.211 75.7715C116.305 75.6836 116.39 75.568 116.465 75.4248L117.056 74.3311ZM117.275 69.7168L117.734 73.6182L117.671 75.0391L116.753 75.1465L115.85 69.7168H117.275Z" fill="#00A2DD"/>
<defs>
<clipPath id="clip0_6254_25229">
<rect width="166" height="63" fill="white" transform="translate(5 5)"/>
</clipPath>
<clipPath id="clip1_6254_25229">
<rect width="47" height="13" fill="white" transform="translate(124 68)"/>
</clipPath>
</defs>
</svg>
