<svg width="30" height="26" viewBox="0 0 30 26" fill="none" xmlns="http://www.w3.org/2000/svg">
<g clip-path="url(#clip0_6254_25761)">
<path d="M22.2032 14.3899C20.1876 12.5963 17.5059 11.6086 14.6517 11.6086C11.7975 11.6086 9.11565 12.5963 7.10023 14.3899L4.43507 12.0321C7.16183 9.60556 10.7902 8.26914 14.6518 8.26914C18.5135 8.26914 22.1419 9.60545 24.8686 12.0321L22.2032 14.3899ZM14.6516 6.043C19.1816 6.043 23.4391 7.60984 26.6393 10.455L29.3032 8.09605C25.3918 4.61875 20.1884 2.70361 14.6516 2.70361C9.11465 2.70361 3.91142 4.61875 0 8.09605L2.6639 10.455C5.86412 7.60984 10.1214 6.043 14.6516 6.043ZM20.4347 15.9695C18.8925 14.5929 16.8386 13.8349 14.6516 13.8349C12.4647 13.8349 10.4108 14.593 8.86851 15.9695L11.5376 18.3239C12.3682 17.5826 13.4742 17.1743 14.6515 17.1743C15.829 17.1743 16.9347 17.5825 17.7651 18.3238L20.4347 15.9695ZM14.6516 18.844C13.2658 18.844 12.1425 19.8407 12.1425 21.0702C12.1425 22.2998 13.2658 23.2965 14.6516 23.2965C16.0371 23.2965 17.1607 22.2998 17.1607 21.0702C17.1607 19.8407 16.0371 18.844 14.6516 18.844Z" fill="#00A2DD"/>
</g>
<defs>
<clipPath id="clip0_6254_25761">
<rect width="29.3032" height="26" fill="white"/>
</clipPath>
</defs>
</svg>
